# xmcd CD database file
#
# Track frame offsets:
#	150
#	15602
#	27330
#	53502
#	67420
#	72330
#	101805
#	123520
#	127855
#	151607
#	178247
#	185167
#	200500
#	219530
#	223505
#
# Disc length: 3358 seconds
#
# Revision: 0
# Processed by: cddbd v1.4PL0 Copyright (c) Steve Scherf et al.
# Submitted via: CDex 1.50beta10
#
DISCID=e10d1c0f
DTITLE=Various Artist - Nature Spa Life
DYEAR=2003
DGENRE=New Age
TTITLE0=1. Various Artists - Spring Glamour
TTITLE1=Tarogo's Forest 
TTITLE2=Forest Awakening
TTITLE3=Dance Of Fireflies
TTITLE4=Song Of Owls
TTITLE5=Lake In The Mist 
TTITLE6=Starlight Serenade 
TTITLE7=White Breasted Water Hen's Summer 
TTITLE8=Country Wind 
TTITLE9=The Hahpen Creek 
TTITLE10=Rain Of Fall
TTITLE11=A Rain Of My Own 
TTITLE12=Winter Spa 
TTITLE13=A Bubbling Spring 
TTITLE14=Green Pond 
EXTD=YEAR: 2003
EXTT0=
EXTT1=
EXTT2=
EXTT3=
EXTT4=
EXTT5=
EXTT6=
EXTT7=
EXTT8=
EXTT9=
EXTT10=
EXTT11=
EXTT12=
EXTT13=
EXTT14=
PLAYORDER=
